<?xml version="1.0" standalone="no"?>
<!DOCTYPE svg PUBLIC "-//W3C//DTD SVG 20010904//EN"
 "http://www.w3.org/TR/2001/REC-SVG-20010904/DTD/svg10.dtd">
<svg version="1.0" xmlns="http://www.w3.org/2000/svg"
 width="1000.000000pt" height="1000.000000pt" viewBox="0 0 1000.000000 1000.000000"
 preserveAspectRatio="xMidYMid meet">

<g transform="translate(0.000000,1000.000000) scale(0.100000,-0.100000)"
fill="#000000" stroke="none">
<path d="M0 7510 l0 -2490 5000 0 5000 0 0 2490 0 2490 -5000 0 -5000 0 0
-2490z m2038 1128 l-3 -83 -580 0 -580 0 -3 83 -3 82 586 0 586 0 -3 -82z
m322 -288 c0 -203 1 -370 3 -370 1 0 169 167 372 370 l370 371 123 -3 122 -3
-575 -575 -575 -575 0 578 0 577 80 0 80 0 0 -370z m1517 -207 l-2 -576 -80 0
-80 1 0 366 c0 201 -2 366 -5 366 -3 0 -170 -165 -373 -367 l-367 -368 -125 0
-125 0 578 578 c317 317 578 577 579 577 1 0 2 -260 0 -577z m306 473 c73 -58
294 -233 492 -390 l360 -285 3 389 2 390 85 0 85 0 0 -581 c0 -464 -3 -579
-12 -572 -72 56 -408 322 -578 458 -362 288 -398 315 -404 315 -3 0 -6 -175
-6 -390 l0 -390 -85 0 -85 0 0 580 c0 319 3 580 6 580 3 0 65 -47 137 -104z
m1871 89 c32 -9 86 -29 120 -46 71 -35 191 -128 191 -148 0 -7 -27 -37 -60
-66 l-60 -54 -55 46 c-30 25 -84 60 -120 77 -59 28 -74 31 -165 31 -87 0 -107
-3 -157 -27 -105 -49 -190 -145 -228 -259 -80 -233 105 -505 358 -526 188 -16
332 62 408 220 55 116 72 107 -211 107 l-245 0 0 85 0 85 330 0 330 0 0 -65
c0 -141 -54 -306 -131 -402 -129 -160 -355 -234 -574 -188 -88 19 -115 30
-192 77 -235 147 -328 469 -212 738 62 144 213 272 371 314 71 20 229 20 302
1z m1526 -565 l0 -580 -85 0 -85 0 0 372 0 373 -373 -373 -372 -372 -125 0
-125 0 575 578 c316 319 578 580 583 580 4 1 7 -259 7 -578z m895 565 c93 -25
173 -73 256 -156 83 -82 137 -177 158 -277 16 -75 14 -208 -4 -276 -46 -175
-189 -335 -354 -396 -94 -36 -143 -40 -472 -40 l-319 0 0 580 0 580 338 0
c271 0 349 -3 397 -15z m755 -565 l0 -581 -80 3 -80 3 -3 578 -2 577 83 0 82
0 0 -580z m-7192 3 l3 -83 -586 0 -585 0 0 78 c0 43 3 82 7 85 3 4 266 6 582
5 l576 -3 3 -82z m2 -498 l0 -85 -585 0 -585 0 0 85 0 85 585 0 585 0 0 -85z
m3320 -359 c30 -8 68 -20 85 -26 l30 -11 -57 -23 c-132 -54 -218 -130 -269
-240 -44 -95 -48 -180 -14 -293 6 -18 4 -21 -13 -16 -14 3 -37 -8 -72 -36 -62
-49 -80 -52 -47 -8 44 58 43 72 -7 101 -63 37 -131 117 -151 177 -76 227 231
449 515 375z m1506 -54 c23 -11 61 -43 86 -71 63 -70 83 -137 82 -271 -1 -125
-23 -193 -84 -263 -99 -112 -287 -128 -412 -34 -55 41 -105 139 -118 229 -12
81 2 201 29 262 27 62 88 125 146 153 44 21 61 24 140 20 67 -2 100 -9 131
-25z m-506 -44 l0 -63 -132 3 c-186 4 -178 9 -178 -88 0 -96 -6 -93 163 -88
l117 3 0 -62 0 -62 -137 -3 -138 -3 -2 -140 -1 -140 -81 0 -81 0 0 345 c0 190
0 348 0 353 0 4 106 7 235 7 l235 0 0 -62z m1179 47 c106 -37 145 -97 139
-215 -3 -66 -7 -82 -32 -114 -15 -21 -41 -45 -56 -55 l-28 -17 55 -109 c30
-61 63 -124 73 -142 10 -17 16 -34 13 -37 -4 -3 -45 -6 -92 -6 l-87 0 -59 121
c-33 66 -67 124 -75 129 -8 4 -31 7 -50 6 l-35 -1 -2 -125 -1 -125 -81 -3 -80
-3 -3 348 c-2 191 -2 351 0 356 2 4 83 7 181 7 132 0 189 -4 220 -15z m413
-244 c3 -245 4 -261 24 -288 28 -38 81 -51 131 -32 61 23 63 34 63 322 l0 257
85 0 85 0 0 -267 c0 -239 -2 -272 -19 -309 -44 -96 -122 -138 -257 -139 -81 0
-96 3 -149 30 -69 35 -109 86 -124 158 -6 26 -11 156 -11 287 l0 240 84 0 85
0 3 -259z m807 17 c41 -131 77 -238 81 -238 3 0 39 107 81 238 l75 237 112 3
c72 2 112 -1 112 -8 0 -5 0 -164 0 -352 l1 -343 -82 -3 -82 -3 5 246 c3 135 4
244 2 242 -2 -2 -39 -107 -82 -233 -42 -126 -81 -235 -85 -241 -5 -8 -30 -13
-61 -13 l-54 0 -77 233 c-43 127 -81 238 -85 246 -4 8 -5 -97 -2 -233 l5 -247
-82 3 -82 3 1 343 c0 188 0 347 0 352 0 7 40 10 112 8 l111 -3 76 -237z
m-3211 186 c96 -82 127 -202 79 -307 -14 -30 -46 -74 -71 -98 -29 -28 -46 -52
-46 -67 0 -51 53 -114 120 -142 30 -12 31 -14 14 -27 -47 -35 -198 11 -259 79
l-37 40 -68 -7 c-38 -4 -77 -4 -89 0 -52 16 -74 191 -36 293 25 69 97 158 157
195 43 27 160 75 184 76 6 1 29 -15 52 -35z"/>
<path d="M7910 8141 l0 -411 233 0 c253 0 301 7 384 56 68 40 132 110 167 184
29 60 31 73 31 175 0 104 -2 114 -32 176 -40 80 -120 159 -200 197 -58 27 -59
27 -320 30 l-263 3 0 -410z"/>
<path d="M6664 7118 c-12 -5 -32 -28 -44 -51 -29 -50 -40 -205 -20 -286 34
-141 177 -163 240 -36 22 44 25 63 25 155 0 90 -4 112 -24 153 -13 28 -35 54
-52 62 -32 17 -94 19 -125 3z"/>
<path d="M7312 7122 c-9 -6 -12 -34 -10 -103 l3 -94 62 -3 c88 -4 129 15 143
67 12 47 -5 102 -38 120 -27 14 -144 24 -160 13z"/>
<path d="M7825 4073 c-11 -2 -58 -11 -105 -20 -316 -58 -629 -261 -824 -533
-135 -189 -210 -377 -250 -632 -20 -123 -20 -201 -1 -330 51 -341 179 -594
412 -818 201 -195 440 -314 727 -365 121 -21 368 -16 486 10 280 62 502 183
695 379 189 192 293 379 361 649 35 138 44 388 20 522 -58 312 -179 547 -389
754 -112 110 -226 191 -362 256 -204 99 -370 136 -600 134 -82 -1 -159 -3
-170 -6z m468 -127 c60 -14 142 -39 182 -55 284 -114 525 -339 661 -616 67
-138 101 -255 121 -420 14 -112 14 -147 3 -249 -26 -250 -105 -453 -250 -644
-366 -483 -1016 -638 -1565 -373 -341 165 -580 459 -675 831 -47 184 -47 427
0 610 116 451 463 796 920 916 103 27 174 33 340 29 123 -3 177 -9 263 -29z"/>
<path d="M7939 3906 c-2 -3 -32 -7 -66 -10 -438 -41 -847 -363 -989 -777 -53
-157 -68 -246 -67 -399 1 -133 10 -199 44 -319 98 -342 323 -603 651 -755 114
-53 180 -69 273 -68 256 2 476 171 549 421 9 32 16 92 16 144 0 157 -46 278
-146 387 -72 77 -121 111 -226 155 -223 94 -367 265 -412 489 -30 147 -13 264
59 412 57 118 146 213 258 273 42 24 77 45 77 47 0 5 -15 5 -21 0z m-873
-1014 c61 -31 134 -100 134 -127 0 -21 -31 -33 -119 -48 l-73 -12 69 -48 c38
-26 103 -60 143 -75 84 -31 74 -17 195 -272 43 -91 82 -157 120 -203 99 -119
239 -207 345 -215 38 -3 65 -12 87 -29 17 -14 53 -33 80 -42 88 -33 95 -8 24
96 -28 41 -60 105 -76 152 -14 44 -39 96 -56 117 -33 42 -36 64 -13 125 22 60
21 171 -3 234 -27 71 -49 71 -56 -1 -5 -49 -39 -124 -57 -124 -3 0 -16 28 -30
61 -28 72 -130 231 -162 253 -12 9 -20 18 -17 21 11 10 151 -130 179 -178 l28
-49 9 53 c6 42 13 56 34 68 24 13 29 13 52 -2 38 -24 76 -112 83 -187 4 -47 0
-86 -14 -139 l-19 -73 33 -55 c18 -30 44 -88 57 -128 14 -41 43 -97 65 -127
64 -84 71 -117 34 -160 -30 -36 -127 -17 -198 37 -18 14 -45 25 -61 25 -92 1
-217 67 -332 175 -91 86 -137 152 -196 284 -93 209 -92 207 -170 245 -105 50
-235 154 -235 187 0 9 54 24 123 34 26 3 47 12 47 18 0 7 -29 31 -64 55 -66
44 -146 123 -146 143 0 6 21 -5 48 -24 26 -19 74 -48 108 -65z m819 -875 c28
-47 28 -47 7 -47 -28 0 -55 34 -47 59 9 29 17 26 40 -12z"/>
<path d="M8143 3843 c9 -2 23 -2 30 0 6 3 -1 5 -18 5 -16 0 -22 -2 -12 -5z"/>
<path d="M8268 3843 c6 -2 18 -2 25 0 6 3 1 5 -13 5 -14 0 -19 -2 -12 -5z"/>
<path d="M8368 3818 c5 -5 16 -8 23 -6 8 3 3 7 -10 11 -17 4 -21 3 -13 -5z"/>
<path d="M7980 3805 c-14 -8 -20 -14 -14 -15 5 0 19 7 30 15 24 18 16 19 -16
0z"/>
<path d="M8440 3800 c8 -5 22 -9 30 -9 10 0 8 3 -5 9 -27 12 -43 12 -25 0z"/>
<path d="M8420 3779 c0 -5 5 -7 10 -4 6 3 10 8 10 11 0 2 -4 4 -10 4 -5 0 -10
-5 -10 -11z"/>
<path d="M7894 3758 c-16 -12 -31 -23 -33 -25 -2 -1 4 -13 15 -24 19 -21 19
-22 -3 -15 -12 4 -24 2 -28 -3 -3 -6 0 -8 9 -5 11 4 13 0 9 -16 -4 -17 -8 -19
-15 -8 -5 8 -6 2 -1 -17 4 -16 7 -42 7 -57 1 -14 4 -24 8 -22 3 2 16 -8 27
-23 18 -23 17 -20 -4 21 -14 27 -25 58 -25 68 0 26 53 78 79 78 31 0 128 -39
159 -64 16 -13 43 -23 67 -24 22 -2 48 -5 59 -8 11 -4 16 -2 13 4 -4 5 -28 12
-55 15 -30 3 -73 20 -113 43 -53 32 -74 38 -121 39 -55 0 -56 0 -40 20 17 20
17 20 -4 3 -11 -10 -25 -18 -30 -18 -5 1 7 14 26 30 40 35 36 40 -6 8z"/>
<path d="M8008 3773 c7 -3 16 -2 19 1 4 3 -2 6 -13 5 -11 0 -14 -3 -6 -6z"/>
<path d="M8575 3735 c24 -20 96 -58 100 -53 2 2 -24 18 -58 36 -34 18 -53 26
-42 17z"/>
<path d="M7819 3694 c-13 -14 -17 -23 -9 -19 13 5 46 45 37 45 -2 0 -14 -11
-28 -26z"/>
<path d="M8687 3659 c7 -7 15 -10 18 -7 3 3 -2 9 -12 12 -14 6 -15 5 -6 -5z"/>
<path d="M7762 3632 c-32 -38 -71 -112 -48 -93 9 7 16 20 16 27 0 8 5 14 10
14 6 0 10 7 10 16 0 9 5 12 13 8 6 -4 9 -3 4 1 -4 5 0 17 10 27 9 10 14 20 12
22 -2 3 -14 -8 -27 -22z"/>
<path d="M7933 3643 c-22 -8 -14 -41 16 -75 16 -18 38 -49 50 -68 11 -19 21
-30 21 -25 0 6 -7 21 -16 33 -8 12 -13 22 -11 22 3 0 -11 17 -29 37 -31 33
-33 38 -17 45 16 6 16 7 -2 8 -12 1 -15 4 -7 7 16 6 72 -16 72 -29 0 -5 4 -7
10 -3 5 3 18 -3 30 -15 11 -11 25 -20 32 -20 16 0 -22 34 -60 54 -48 25 -76
34 -89 29z"/>
<path d="M8720 3643 c1 -9 50 -47 54 -41 2 1 -10 13 -25 26 -16 13 -29 20 -29
15z"/>
<path d="M8257 3612 c-8 -12 69 -41 84 -30 11 7 11 8 -1 6 -21 -3 -60 12 -60
23 0 11 -17 12 -23 1z"/>
<path d="M8370 3586 c0 -2 7 -7 16 -10 8 -3 12 -2 9 4 -6 10 -25 14 -25 6z"/>
<path d="M7977 3569 c7 -7 15 -10 18 -7 3 3 -2 9 -12 12 -14 6 -15 5 -6 -5z"/>
<path d="M8815 3560 c10 -11 20 -20 23 -20 3 0 -3 9 -13 20 -10 11 -20 20 -23
20 -3 0 3 -9 13 -20z"/>
<path d="M8340 3565 c0 -7 140 -105 150 -105 5 0 10 -6 10 -13 0 -7 16 -29 36
-48 46 -44 117 -158 150 -240 14 -35 41 -96 61 -136 33 -69 38 -73 99 -102 84
-39 138 -77 209 -147 52 -52 67 -58 27 -12 -7 9 -11 21 -7 27 3 6 0 9 -7 6 -7
-3 -31 11 -52 30 -21 20 -52 43 -67 52 -16 10 -29 20 -29 24 0 3 -18 12 -40
19 -28 9 -37 16 -28 22 9 5 4 8 -13 8 -38 0 -54 18 -94 105 -20 44 -41 90 -47
102 -6 11 -7 27 -3 34 5 7 4 10 -2 6 -6 -4 -16 6 -22 23 -11 34 -69 123 -101
158 -12 12 -18 27 -14 34 4 7 3 8 -4 4 -6 -4 -21 7 -33 24 -13 16 -28 30 -35
30 -6 0 -14 6 -17 13 -3 8 -21 22 -41 31 -20 9 -34 21 -32 25 3 4 -8 12 -25
18 -16 6 -29 10 -29 8z"/>
<path d="M8165 3545 c80 -17 125 -33 125 -46 0 -5 5 -9 12 -9 13 0 91 -51 96
-63 2 -4 13 -12 25 -18 12 -5 3 8 -21 29 -68 61 -181 115 -250 118 l-57 4 70
-15z"/>
<path d="M7856 3533 c-6 -14 -5 -15 5 -6 7 7 10 15 7 18 -3 3 -9 -2 -12 -12z"/>
<path d="M7696 3512 c-10 -17 -36 -106 -31 -110 2 -2 9 16 16 40 7 23 17 46
22 49 5 4 7 13 5 20 -3 10 -6 10 -12 1z"/>
<path d="M7924 3483 c1 -18 5 -35 9 -40 5 -4 5 1 1 12 -6 18 -5 18 8 5 13 -13
40 -90 38 -105 -1 -8 42 -87 58 -107 8 -10 12 -26 9 -38 -3 -11 -1 -17 4 -14
10 6 2 -40 -9 -61 -14 -23 -18 -121 -9 -168 6 -27 5 -37 -2 -32 -6 3 -11 -1
-11 -11 0 -13 3 -14 15 -4 13 10 15 9 15 -8 0 -12 4 -23 10 -27 5 -3 2 18 -7
47 -18 61 -14 168 10 235 13 39 13 43 -8 70 -21 27 -76 154 -89 203 -3 14 -14
36 -25 49 l-19 25 2 -31z"/>
<path d="M8140 3493 c41 -8 62 -33 56 -68 l-6 -30 14 25 c23 40 -12 82 -66 79
-22 -2 -22 -2 2 -6z"/>
<path d="M8880 3493 c0 -5 11 -20 25 -33 14 -13 25 -29 25 -36 0 -7 5 -16 10
-19 21 -13 8 15 -25 55 -19 23 -35 38 -35 33z"/>
<path d="M8113 3462 c10 -10 17 -23 17 -29 0 -5 12 -20 27 -34 15 -13 23 -17
17 -9 -5 8 -21 32 -34 52 -14 21 -29 38 -34 38 -5 0 -2 -8 7 -18z"/>
<path d="M8025 3440 c13 -44 58 -155 64 -160 4 -3 17 -18 29 -34 12 -16 22
-24 22 -17 0 6 -16 31 -35 57 -19 25 -35 51 -35 58 0 7 -7 27 -16 45 -13 26
-14 35 -3 49 7 9 9 14 5 10 -5 -4 -16 -2 -24 5 -13 10 -14 8 -7 -13z"/>
<path d="M8083 3453 c4 -6 4 -13 0 -16 -5 -2 -2 -2 4 -1 7 2 17 -5 22 -14 6
-9 11 -12 11 -6 0 6 -10 19 -22 30 -12 10 -18 14 -15 7z"/>
<path d="M8960 3398 c0 -3 7 -19 15 -34 8 -16 12 -38 9 -49 -4 -15 -3 -16 4
-6 12 17 27 -3 16 -21 -4 -7 -4 -10 1 -6 4 4 15 2 23 -4 7 -7 0 15 -18 47 -30
57 -50 86 -50 73z"/>
<path d="M8440 3380 c0 -5 4 -10 9 -10 17 0 71 -64 66 -78 -3 -7 0 -10 5 -7 6
3 10 0 10 -8 0 -8 9 -22 20 -32 21 -19 28 -41 8 -29 -7 4 -8 3 -4 -5 4 -6 11
-9 15 -7 4 3 13 -12 20 -32 7 -20 33 -76 57 -124 24 -48 44 -94 44 -103 0 -8
7 -18 15 -21 8 -3 17 -14 20 -25 4 -10 11 -19 17 -19 6 0 -1 15 -16 34 -14 19
-26 37 -26 41 0 19 -128 280 -165 335 -51 77 -95 119 -95 90z"/>
<path d="M7653 3300 c0 -36 2 -50 4 -32 2 17 2 47 0 65 -2 17 -4 3 -4 -33z"/>
<path d="M8486 3293 c-6 -14 -5 -15 5 -6 7 7 10 15 7 18 -3 3 -9 -2 -12 -12z"/>
<path d="M9040 3255 c0 -6 6 -19 14 -30 7 -11 13 -22 13 -25 0 -3 5 -14 12
-25 11 -19 11 -18 5 5 -7 29 -44 90 -44 75z"/>
<path d="M8145 3216 c-45 -49 -63 -228 -30 -298 l15 -33 -6 30 c-20 100 -21
138 -2 208 11 39 24 77 30 85 14 16 7 24 -7 8z"/>
<path d="M7661 3180 c0 -8 4 -22 9 -30 12 -18 12 -2 0 25 -6 13 -9 15 -9 5z"/>
<path d="M8021 3164 c0 -11 3 -14 6 -6 3 7 2 16 -1 19 -3 4 -6 -2 -5 -13z"/>
<path d="M7680 3117 c0 -14 28 -74 38 -81 6 -3 14 -1 18 6 4 7 3 9 -1 5 -5 -4
-19 11 -32 35 -12 24 -22 39 -23 35z"/>
<path d="M8586 3105 c4 -8 8 -15 10 -15 2 0 4 7 4 15 0 8 -4 15 -10 15 -5 0
-7 -7 -4 -15z"/>
<path d="M8771 3104 c0 -11 3 -14 6 -6 3 7 2 16 -1 19 -3 4 -6 -2 -5 -13z"/>
<path d="M9111 3075 c1 -19 18 -51 18 -35 0 8 -4 22 -9 30 -5 8 -9 11 -9 5z"/>
<path d="M8181 3011 c-12 -16 -21 -34 -21 -39 0 -6 -6 -13 -12 -15 -9 -4 -8
-6 2 -6 8 0 25 20 37 44 26 52 23 58 -6 16z"/>
<path d="M8240 3024 c0 -6 4 -14 8 -19 5 -6 17 -30 26 -55 28 -71 86 -161 134
-207 24 -24 48 -43 53 -43 4 0 -14 21 -42 47 -27 25 -47 48 -45 50 2 2 -6 15
-18 28 -26 28 -69 109 -69 130 0 8 -4 15 -9 15 -4 0 -8 6 -8 13 -1 14 -30 55
-30 41z"/>
<path d="M7732 3000 c7 -10 14 -18 15 -16 6 6 -9 36 -18 36 -5 0 -4 -9 3 -20z"/>
<path d="M9142 2965 c0 -11 4 -31 8 -45 6 -20 8 -21 8 -5 0 11 -4 31 -8 45 -6
20 -8 21 -8 5z"/>
<path d="M7775 2940 c17 -19 35 -40 42 -47 6 -7 14 -9 17 -4 4 5 0 11 -6 14
-10 3 -10 8 2 23 14 17 14 18 -2 6 -20 -16 -42 -6 -34 15 3 8 1 11 -5 8 -5 -4
-18 -1 -27 6 -9 7 -3 -2 13 -21z"/>
<path d="M8150 2916 c0 -14 -5 -28 -10 -31 -6 -4 -8 -11 -5 -16 12 -19 21 -8
23 31 2 22 0 40 -3 40 -3 0 -5 -11 -5 -24z"/>
<path d="M8219 2851 c-12 -39 -12 -48 -2 -44 7 3 13 18 13 35 0 16 4 27 10 23
5 -3 7 -13 4 -23 -5 -15 -4 -15 6 -2 10 13 11 11 7 -8 -3 -12 -1 -20 4 -16 13
8 11 20 -9 53 l-18 30 -15 -48z"/>
<path d="M7870 2850 c19 -17 38 -30 43 -30 6 0 -7 14 -28 30 -49 39 -61 38
-15 0z"/>
<path d="M8780 2876 c0 -2 7 -7 16 -10 8 -3 12 -2 9 4 -6 10 -25 14 -25 6z"/>
<path d="M9163 2840 c0 -25 2 -35 4 -22 2 12 2 32 0 45 -2 12 -4 2 -4 -23z"/>
<path d="M8060 2861 c0 -5 21 -27 46 -50 37 -35 48 -40 60 -30 8 6 12 14 9 18
-3 3 -10 0 -14 -7 -5 -9 -18 -2 -44 25 -20 20 -37 40 -37 45 0 4 -4 8 -10 8
-5 0 -10 -4 -10 -9z"/>
<path d="M8381 2850 c0 -8 4 -22 9 -30 12 -18 12 -2 0 25 -6 13 -9 15 -9 5z"/>
<path d="M8830 2851 c8 -6 21 -11 29 -11 8 0 29 -12 48 -26 19 -14 37 -24 40
-21 7 8 -71 55 -104 62 -21 5 -24 4 -13 -4z"/>
<path d="M8275 2810 c-3 -5 1 -10 10 -10 9 0 13 5 10 10 -3 6 -8 10 -10 10 -2
0 -7 -4 -10 -10z"/>
<path d="M7964 2788 c9 -5 23 -5 32 0 12 6 7 9 -16 9 -23 0 -28 -3 -16 -9z"/>
<path d="M8015 2780 c-16 -7 -17 -9 -3 -9 9 -1 20 4 23 9 7 11 7 11 -20 0z"/>
<path d="M8892 2774 c-7 -8 -8 -14 -3 -14 10 0 25 19 20 25 -2 1 -10 -3 -17
-11z"/>
<path d="M8955 2780 c-3 -5 1 -10 10 -10 9 0 13 5 10 10 -3 6 -8 10 -10 10 -2
0 -7 -4 -10 -10z"/>
<path d="M9090 2781 c0 -6 4 -13 10 -16 6 -3 7 1 4 9 -7 18 -14 21 -14 7z"/>
<path d="M8324 2760 c17 -10 44 -35 62 -54 17 -19 35 -32 38 -29 9 9 -95 103
-114 103 -9 0 -3 -8 14 -20z"/>
<path d="M9166 2765 c4 -8 8 -15 10 -15 2 0 4 7 4 15 0 8 -4 15 -10 15 -5 0
-7 -7 -4 -15z"/>
<path d="M8933 2758 c-29 -5 -53 -13 -53 -18 0 -5 15 -4 32 1 18 5 48 9 66 9
20 0 31 4 27 10 -3 6 -9 9 -13 9 -4 -1 -31 -6 -59 -11z"/>
<path d="M8094 2736 c16 -14 33 -26 38 -26 13 0 -13 25 -42 39 -23 12 -22 11
4 -13z"/>
<path d="M8837 2726 c-4 -10 -1 -13 9 -9 15 6 19 23 5 23 -5 0 -11 -7 -14 -14z"/>
<path d="M9165 2730 c-3 -5 -1 -10 4 -10 6 0 11 5 11 10 0 6 -2 10 -4 10 -3 0
-8 -4 -11 -10z"/>
<path d="M9045 2699 c-44 -9 -67 -18 -52 -18 34 -1 118 18 132 30 5 5 7 8 5 8
-3 -1 -41 -10 -85 -20z"/>
<path d="M8190 2674 c25 -21 58 -51 74 -67 16 -15 30 -26 32 -24 3 2 -2 10
-11 17 -8 7 -15 17 -15 23 0 5 9 2 20 -8 18 -17 20 -17 14 -2 -6 16 -17 21
-37 18 -5 -1 -27 14 -50 32 -60 48 -81 56 -27 11z"/>
<path d="M8810 2694 c0 -12 14 -36 30 -54 26 -27 28 -35 18 -49 -11 -14 -11
-14 2 -4 12 9 23 6 55 -18 40 -29 46 -32 97 -51 15 -6 25 -14 22 -19 -3 -5 3
-6 12 -2 13 5 15 3 9 -7 -5 -8 -4 -11 3 -6 6 4 25 -8 42 -25 16 -18 30 -28 30
-23 0 19 -76 78 -136 106 -74 34 -145 94 -167 140 -13 27 -17 29 -17 12z"/>
<path d="M9171 2694 c0 -11 3 -14 6 -6 3 7 2 16 -1 19 -3 4 -6 -2 -5 -13z"/>
<path d="M8920 2670 c0 -7 9 -9 23 -5 14 4 18 3 9 -3 -11 -7 -10 -11 1 -20 11
-9 13 -7 12 11 -2 23 -45 39 -45 17z"/>
<path d="M9008 2663 c7 -3 16 -2 19 1 4 3 -2 6 -13 5 -11 0 -14 -3 -6 -6z"/>
<path d="M9144 2639 c-4 -8 -3 -9 4 -5 15 9 16 -56 2 -70 -7 -7 -6 -11 5 -11
11 0 15 11 15 43 0 43 -13 64 -26 43z"/>
<path d="M9021 2596 c50 -38 95 -86 116 -125 13 -23 14 -23 10 -3 -3 12 -1 22
4 22 5 0 9 5 9 11 0 8 -4 8 -13 1 -20 -17 -43 24 -25 46 8 9 8 13 1 9 -6 -4
-13 -4 -16 0 -2 5 -2 2 -1 -4 5 -20 -14 -15 -25 5 -10 19 -81 72 -95 72 -5 0
11 -15 35 -34z"/>
<path d="M9085 2620 c3 -5 8 -10 11 -10 2 0 4 5 4 10 0 6 -5 10 -11 10 -5 0
-7 -4 -4 -10z"/>
<path d="M8313 2550 c6 -11 15 -20 19 -20 5 0 8 -4 8 -10 0 -5 14 -31 31 -57
18 -28 28 -38 24 -23 -10 32 -67 118 -82 124 -10 4 -10 1 0 -14z"/>
<path d="M9120 2390 c-7 -17 -10 -33 -8 -36 3 -3 11 9 17 27 14 42 7 49 -9 9z"/>
<path d="M8415 2387 c-3 -7 -1 -24 5 -38 9 -21 9 -20 4 11 -4 26 -3 31 5 20 7
-9 11 -10 11 -3 0 18 -19 26 -25 10z"/>
<path d="M8435 2319 c-4 -6 -5 -12 -2 -15 2 -3 7 2 10 11 7 17 1 20 -8 4z"/>
<path d="M9080 2286 c-15 -41 -10 -56 6 -17 8 18 13 36 10 39 -3 2 -10 -7 -16
-22z"/>
<path d="M8454 2150 c0 -52 1 -74 3 -47 2 26 2 68 0 95 -2 26 -3 4 -3 -48z"/>
<path d="M9039 2195 c-22 -47 -11 -53 12 -7 22 41 22 42 12 42 -5 -1 -15 -16
-24 -35z"/>
<path d="M9000 2125 c-7 -13 -17 -22 -21 -19 -5 3 -6 -2 -3 -11 4 -8 0 -23 -7
-32 -8 -9 -9 -14 -3 -10 14 8 57 87 51 93 -2 2 -10 -7 -17 -21z"/>
<path d="M8441 2034 c0 -11 3 -14 6 -6 3 7 2 16 -1 19 -3 4 -6 -2 -5 -13z"/>
<path d="M8928 2015 c-6 -14 -17 -24 -24 -21 -6 2 -11 -3 -10 -12 0 -9 -10
-21 -22 -28 -13 -6 -19 -15 -14 -18 10 -6 72 51 72 66 0 4 7 14 16 22 8 9 11
16 4 16 -6 0 -16 -11 -22 -25z"/>
<path d="M8451 1974 c0 -11 3 -14 6 -6 3 7 2 16 -1 19 -3 4 -6 -2 -5 -13z"/>
<path d="M8417 1941 c-4 -17 -3 -21 5 -13 5 5 8 16 6 23 -3 8 -7 3 -11 -10z"/>
<path d="M8824 1901 c1 -8 -11 -21 -26 -29 -16 -7 -33 -22 -38 -33 -6 -10 -15
-19 -21 -19 -6 0 -7 5 -3 12 5 7 3 8 -5 4 -7 -5 -10 -11 -7 -14 3 -3 1 -11 -5
-19 -29 -34 13 -6 74 50 50 45 64 63 49 63 -11 0 -19 -7 -18 -15z"/>
<path d="M8400 1889 c0 -5 5 -7 10 -4 6 3 10 8 10 11 0 2 -4 4 -10 4 -5 0 -10
-5 -10 -11z"/>
<path d="M8369 1828 c-7 -13 -19 -34 -27 -48 -14 -24 -13 -24 3 -5 20 24 48
75 41 75 -3 0 -11 -10 -17 -22z"/>
<path d="M8660 1759 l-35 -30 37 23 c21 13 38 26 38 31 0 10 -2 9 -40 -24z"/>
<path d="M8570 1726 c7 -7 13 -7 20 0 6 6 3 10 -10 10 -13 0 -16 -4 -10 -10z"/>
<path d="M8265 1690 c-3 -6 1 -7 9 -4 18 7 21 14 7 14 -6 0 -13 -4 -16 -10z"/>
<path d="M8503 1670 c-34 -14 -28 -21 7 -9 17 6 30 13 30 15 0 6 -12 4 -37 -6z"/>
<path d="M8200 1630 c-19 -17 -29 -30 -23 -30 7 0 15 5 19 11 3 6 20 19 38 30
17 10 24 19 16 19 -8 -1 -31 -14 -50 -30z"/>
<path d="M8410 1650 c-13 -9 -13 -10 0 -11 10 0 8 -3 -5 -9 -13 -6 -15 -9 -5
-9 8 0 29 6 45 14 l30 14 -30 -5 c-23 -4 -27 -3 -15 5 19 13 0 14 -20 1z"/>
<path d="M8360 1609 c0 -5 5 -7 10 -4 6 3 10 8 10 11 0 2 -4 4 -10 4 -5 0 -10
-5 -10 -11z"/>
<path d="M8305 1600 c-3 -5 -1 -10 4 -10 6 0 11 5 11 10 0 6 -2 10 -4 10 -3 0
-8 -4 -11 -10z"/>
<path d="M8115 1574 c-22 -15 -32 -23 -22 -20 10 3 41 6 68 6 27 0 49 3 49 8
0 4 -19 6 -42 4 -41 -4 -42 -3 -23 12 31 24 15 18 -30 -10z"/>
<path d="M8268 1583 c7 -3 16 -2 19 1 4 3 -2 6 -13 5 -11 0 -14 -3 -6 -6z"/>
<path d="M1332 3943 c-18 -8 -31 -18 -28 -20 2 -3 14 1 27 7 50 27 164 8 268
-45 29 -14 55 -25 57 -22 7 6 -117 63 -175 81 -68 20 -107 20 -149 -1z"/>
<path d="M2540 3937 c-69 -23 -178 -82 -220 -118 l-25 -21 25 16 c74 47 191
105 235 116 72 17 149 14 182 -7 15 -10 24 -13 20 -7 -12 20 -74 44 -114 44
-21 0 -67 -11 -103 -23z"/>
<path d="M1670 3853 c0 -4 21 -23 48 -40 26 -18 59 -42 75 -54 15 -11 27 -17
27 -12 0 4 -15 18 -33 30 -17 11 -51 35 -74 53 -24 17 -43 28 -43 23z"/>
<path d="M2269 3783 c-13 -16 -12 -17 4 -4 16 13 21 21 13 21 -2 0 -10 -8 -17
-17z"/>
<path d="M2190 3719 l-55 -51 52 42 c47 37 70 60 61 60 -2 0 -28 -23 -58 -51z"/>
<path d="M1850 3715 c13 -14 26 -25 28 -25 3 0 -5 11 -18 25 -13 14 -26 25
-28 25 -3 0 5 -11 18 -25z"/>
<path d="M2015 3550 c-3 -5 1 -10 10 -10 9 0 13 5 10 10 -3 6 -8 10 -10 10 -2
0 -7 -4 -10 -10z"/>
<path d="M1955 3489 c-4 -6 -5 -12 -2 -15 2 -3 7 2 10 11 7 17 1 20 -8 4z"/>
<path d="M5316 3463 c-3 -3 -6 -64 -6 -135 l0 -129 -29 15 c-28 15 -32 14
-120 -37 l-92 -52 3 -109 3 -109 80 -48 c44 -27 88 -48 97 -49 10 0 56 23 103
50 l85 51 0 243 c0 183 -3 246 -12 253 -33 25 -106 62 -112 56z m-31 -399 c36
-24 35 -74 -3 -96 -24 -14 -30 -15 -55 -2 -36 19 -39 75 -5 98 28 20 33 20 63
0z"/>
<path d="M1919 3443 c-13 -16 -12 -17 4 -4 9 7 17 15 17 17 0 8 -8 3 -21 -13z"/>
<path d="M4303 3182 l-82 -47 -1 -142 c0 -79 3 -143 6 -143 3 0 30 14 60 32
l53 32 3 70 c3 61 6 71 29 88 25 19 28 19 58 4 30 -16 31 -18 31 -89 l0 -72
57 -33 c32 -19 60 -29 65 -24 5 5 7 69 6 142 l-3 133 -85 49 c-46 26 -91 48
-100 48 -8 0 -52 -21 -97 -48z"/>
<path d="M5565 3182 l-80 -48 -2 -110 -3 -109 88 -48 87 -49 54 29 c29 15 54
33 54 38 0 5 -37 30 -81 55 -79 44 -81 46 -82 82 0 29 6 41 26 54 23 16 28 16
60 1 28 -14 34 -22 34 -47 0 -16 3 -30 6 -30 4 0 31 14 60 31 49 27 54 34 54
64 0 32 -5 37 -85 85 -47 27 -91 50 -98 50 -7 0 -48 -22 -92 -48z"/>
<path d="M1752 3212 c-7 -5 86 -7 205 -4 120 2 251 0 291 -5 51 -7 69 -6 62 1
-13 13 -539 21 -558 8z"/>
<path d="M1413 3168 c-57 -11 -103 -25 -103 -30 0 -6 8 -7 18 -3 9 4 58 14
107 22 50 8 94 19 100 24 12 12 -2 11 -122 -13z"/>
<path d="M2516 3181 c5 -4 52 -16 104 -26 52 -10 102 -20 110 -23 10 -3 12 -2
5 6 -5 5 -57 20 -114 31 -118 24 -118 24 -105 12z"/>
<path d="M1085 3079 c-27 -11 -59 -22 -70 -26 -48 -16 -214 -106 -241 -131
-17 -15 -23 -22 -15 -16 9 7 32 21 51 31 19 11 60 34 90 51 30 16 100 47 155
67 55 20 102 39 104 41 9 9 -27 0 -74 -17z"/>
<path d="M2896 3092 c5 -5 41 -19 79 -32 39 -13 107 -41 153 -61 45 -21 82
-36 82 -33 0 6 -145 74 -232 108 -66 26 -101 33 -82 18z"/>
<path d="M3220 2955 c0 -4 16 -16 100 -71 18 -12 17 -10 -5 9 -32 29 -95 69
-95 62z"/>
<path d="M2187 2484 c-27 -19 -68 -39 -90 -45 -60 -16 -148 -5 -210 26 -41 20
-47 22 -27 6 92 -75 262 -65 355 21 39 36 31 34 -28 -8z"/>
<path d="M664 2409 c41 -35 187 -122 193 -115 2 2 -27 21 -64 42 -84 48 -93
53 -135 82 -27 19 -26 17 6 -9z"/>
<path d="M3399 2423 c-13 -16 -12 -17 4 -4 9 7 17 15 17 17 0 8 -8 3 -21 -13z"/>
<path d="M3330 2379 c-58 -41 -225 -120 -315 -150 -80 -27 -80 -27 -73 -34 9
-9 259 95 328 136 62 37 121 79 110 79 -3 0 -25 -14 -50 -31z"/>
<path d="M876 2282 c9 -9 180 -76 222 -87 38 -11 24 3 -15 15 -21 6 -47 15
-58 20 -37 17 -148 60 -154 60 -3 0 -1 -4 5 -8z"/>
<path d="M1260 2152 c0 -14 385 -80 398 -68 6 6 -23 12 -128 26 -47 6 -125 20
-175 31 -104 22 -95 21 -95 11z"/>
<path d="M2710 2144 c-30 -7 -111 -21 -180 -30 -69 -10 -131 -23 -138 -29 -11
-10 85 4 351 51 20 4 40 11 43 15 7 11 -8 10 -76 -7z"/>
<path d="M1873 2068 c16 -10 276 -9 302 1 10 4 -56 7 -147 7 -92 0 -161 -4
-155 -8z"/>
<path d="M3815 2012 c6 -6 82 -52 170 -103 88 -50 188 -108 222 -128 258 -149
334 -191 342 -191 5 0 11 -4 13 -8 4 -10 424 -252 438 -252 8 0 352 195 540
306 30 18 87 50 125 72 39 21 98 55 133 75 76 45 147 86 277 161 55 32 105 63
110 68 15 15 -34 -11 -210 -112 -337 -195 -422 -243 -475 -273 -30 -16 -62
-35 -70 -42 -8 -7 -40 -26 -70 -42 -30 -17 -122 -69 -203 -117 -82 -47 -153
-86 -158 -86 -6 0 -224 123 -299 170 -8 5 -37 21 -65 36 -27 14 -56 31 -64 38
-7 6 -42 27 -77 46 -35 19 -200 113 -366 209 -340 195 -327 188 -313 173z"/>
<path d="M2189 1843 c-13 -16 -12 -17 4 -4 9 7 17 15 17 17 0 8 -8 3 -21 -13z"/>
<path d="M2025 1660 c3 -5 8 -10 11 -10 2 0 4 5 4 10 0 6 -5 10 -11 10 -5 0
-7 -4 -4 -10z"/>
<path d="M1997 1653 c-4 -3 -7 -11 -7 -17 0 -6 5 -5 12 2 6 6 9 14 7 17 -3 3
-9 2 -12 -2z"/>
<path d="M2050 1646 c0 -4 138 -118 170 -140 13 -9 13 -8 0 5 -24 25 -170 141
-170 135z"/>
<path d="M1949 1603 l-24 -28 28 24 c25 23 32 31 24 31 -2 0 -14 -12 -28 -27z"/>
<path d="M1896 1565 c-11 -8 -17 -17 -14 -20 2 -3 13 4 23 15 21 23 18 25 -9
5z"/>
<path d="M1815 1504 c-16 -14 -47 -34 -67 -44 -20 -11 -40 -24 -43 -30 -3 -6
15 3 42 18 82 48 92 56 97 69 7 17 6 17 -29 -13z"/>
<path d="M2243 1493 c15 -24 167 -104 253 -132 144 -48 258 -39 337 26 16 13
24 23 19 23 -5 0 -15 -7 -22 -15 -18 -21 -115 -55 -160 -55 -114 0 -237 44
-399 143 -19 11 -31 16 -28 10z"/>
<path d="M1621 1395 c-67 -31 -119 -45 -201 -55 l-65 -7 56 -2 c32 0 85 8 122
19 69 21 157 58 157 65 0 9 -14 4 -69 -20z"/>
<path d="M1220 1384 c0 -9 103 -55 117 -52 9 2 -14 15 -50 29 -37 14 -67 25
-67 23z"/>
</g>
</svg>
